<svg xmlns="http://www.w3.org/2000/svg" width="60.592" height="64.205" viewBox="0 0 60.592 64.205">
  <g id="Group_346" data-name="Group 346" transform="translate(-0.413)">
    <path id="lock" d="M31.81,15.359V10.1c0-3.507-3.477-8.767-12.167-8.767S7.477,6.593,7.477,10.1v5.26H4V34.645A5.244,5.244,0,0,0,9.214,39.9H30.072a5.244,5.244,0,0,0,5.214-5.26V15.359ZM10.952,8.347S12.69,4.84,19.643,4.84s8.691,3.507,8.691,3.507v7.012H10.954V8.347Zm20.858,26.3A1.746,1.746,0,0,1,30.072,36.4H9.214a1.747,1.747,0,0,1-1.738-1.753V18.866H31.812V34.645ZM17.906,28.9v3.992h3.477V28.9a3.477,3.477,0,1,0-3.478,0Z" transform="translate(11.121 -1.333)" fill="#707070"/>
    <g id="Group_215" data-name="Group 215" transform="translate(0 38.054)">
      <text id="Secure" transform="translate(2 13)" fill="#00a1f1" font-size="15" font-family="ProximaNova-Extrabld, Proxima Nova" letter-spacing="-0.002em"><tspan x="0" y="0">SECURE</tspan></text>
      <path id="Path_1426" data-name="Path 1426" d="M.216-4.79A2.465,2.465,0,0,0,2.391-3.444c1.315,0,2.043-1.13,2.043-2.831A2.42,2.42,0,0,0,2.508-8.89c-.544-.178-.845-.33-.845-.774,0-.368.162-.66.58-.66a1.832,1.832,0,0,1,1.381.876l.691-1.562a2.374,2.374,0,0,0-1.991-1.181C1.068-12.191.37-10.96.37-9.538A2.383,2.383,0,0,0,2.31-6.9c.522.19.838.381.838.863a.679.679,0,0,1-.7.724A1.939,1.939,0,0,1,.885-6.427Zm4.438,0A2.465,2.465,0,0,0,6.828-3.444c1.315,0,2.043-1.13,2.043-2.831A2.42,2.42,0,0,0,6.946-8.89C6.4-9.068,6.1-9.22,6.1-9.665c0-.368.162-.66.58-.66a1.832,1.832,0,0,1,1.381.876l.691-1.562a2.374,2.374,0,0,0-1.991-1.181c-1.256,0-1.954,1.232-1.954,2.653A2.383,2.383,0,0,0,6.748-6.9c.522.19.838.381.838.863a.679.679,0,0,1-.7.724A1.939,1.939,0,0,1,5.322-6.427ZM9.444-3.6h3.233V-5.5H10.708v-6.564H9.444Zm5.738,0h3.593V-5.437H16.446V-6.961h2.278V-8.814H16.446v-1.409h2.329v-1.841H15.182Zm7.648,0h1.22v-8.468H22.779v4.875L20.8-12.064h-1.3V-3.6h1.264V-8.713Zm4.452.152c1.22,0,1.859-1.181,2.175-2.273L28.37-6.605c-.162.673-.58,1.232-1.087,1.232-.764,0-1.33-1.066-1.33-2.45s.566-2.45,1.33-2.45c.507,0,.926.559,1.087,1.232l1.087-.889c-.323-1.117-.955-2.273-2.175-2.273-1.469,0-2.616,1.765-2.616,4.38S25.814-3.444,27.283-3.444ZM32.72-3.6h1.447l-1-3.111a2.874,2.874,0,0,0,.977-2.539c0-1.574-.617-2.819-1.7-2.819H29.987V-3.6H31.25V-6.465H31.9Zm.14-5.675c0,.584-.279.952-.61.952h-1v-1.9h1C32.58-10.223,32.86-9.855,32.86-9.271ZM36.026-3.6H37.29V-7.011l1.851-5.053H37.709L36.658-8.941l-1.065-3.123H34.167l1.859,5.053Zm3.461,0H40.75V-6.465h1.19c1.1,0,1.7-1.257,1.7-2.78s-.6-2.819-1.7-2.819H39.487Zm2.873-5.662c0,.571-.25.94-.588.94H40.75v-1.9h1.021C42.11-10.223,42.359-9.843,42.359-9.259ZM45.291-3.6h1.264V-10.16h1.367v-1.9h-4v1.9h1.374Zm3.218,0h1.264v-8.468H48.509ZM50.39-7.824c0,2.577,1.124,4.38,2.623,4.38s2.616-1.8,2.616-4.38-1.117-4.38-2.616-4.38S50.39-10.4,50.39-7.824Zm3.953,0c0,1.371-.522,2.45-1.33,2.45s-1.337-1.079-1.337-2.45.522-2.45,1.337-2.45S54.343-9.208,54.343-7.824ZM59.589-3.6h1.22v-8.468H59.537v4.875l-1.984-4.875h-1.3V-3.6h1.264V-8.713Z" transform="translate(0.197 29.594)" fill="#00a1f1"/>
    </g>
  </g>
</svg>
