<svg id="Group_6" data-name="Group 6" xmlns="http://www.w3.org/2000/svg" width="109.411" height="26.064" viewBox="0 0 109.411 26.064">
  <path id="Path_1" data-name="Path 1" d="M414.66,326.341V300.646h25.111Z" transform="translate(-330.36 -300.604)" fill="#00a1f1"/>
  <g id="Group_5" data-name="Group 5" transform="translate(0 0)">
    <g id="Group_3" data-name="Group 3" transform="translate(0)">
      <g id="Group_1" data-name="Group 1" transform="translate(0 0.003)">
        <path id="Path_2" data-name="Path 2" d="M267.387,311.126,263.3,300.6h2.856l2.691,7.741,2.691-7.741h2.751l-4.134,10.523Z" transform="translate(-263.298 -300.587)"/>
        <path id="Path_3" data-name="Path 3" d="M287.573,302.707v2.09h5.021v2.1h-5.021v2.12H293.3v2.1h-8.4V300.6h8.238v2.1Z" transform="translate(-272.868 -300.587)"/>
        <path id="Path_4" data-name="Path 4" d="M310.446,311.126l-4.841-6.479v6.479H303.1V300.6h2.36l4.856,6.494V300.6h2.5v10.523Z" transform="translate(-280.93 -300.587)"/>
        <path id="Path_5" data-name="Path 5" d="M328.434,302.74v8.374h-2.676V302.74h-3.142v-2.165h8.99v2.165Z" transform="translate(-289.579 -300.575)"/>
        <path id="Path_6" data-name="Path 6" d="M350.141,306.707c0,2.781-1.85,4.54-4.8,4.54-2.962,0-4.856-1.759-4.856-4.54v-6.1h2.676v6.1a2.121,2.121,0,0,0,2.195,2.3,2.073,2.073,0,0,0,2.12-2.3v-6.1h2.661Z" transform="translate(-297.498 -300.587)"/>
        <path id="Path_7" data-name="Path 7" d="M366.061,308.165h-2.105v2.961H361.28V300.6h4.705c2.781,0,4.375,1.323,4.375,3.668a3.508,3.508,0,0,1-1.909,3.382l2.21,3.473h-3.037Zm-.076-2.1a1.6,1.6,0,0,0,1.835-1.7c0-1.1-.677-1.654-1.835-1.654h-2.029v3.353Z" transform="translate(-306.71 -300.587)"/>
        <path id="Path_8" data-name="Path 8" d="M383.5,302.707v2.09h5.021v2.1H383.5v2.12h5.728v2.1h-8.4V300.6h8.238v2.1Z" transform="translate(-315.37 -300.587)"/>
      </g>
      <g id="Group_2" data-name="Group 2" transform="translate(75.657)">
        <path id="Path_9" data-name="Path 9" d="M400.526,301v2.424h-.482V301h-.9v-.433h2.29V301Z" transform="translate(-399.142 -300.57)"/>
        <path id="Path_10" data-name="Path 10" d="M406.569,303.427l0-2.135-.9,1.837h-.314l-.9-1.837v2.135h-.453V300.57h.571l.943,1.9.938-1.9h.568v2.857Z" transform="translate(-401.292 -300.57)"/>
      </g>
    </g>
    <g id="Group_4" data-name="Group 4" transform="translate(24.185 14.976)">
      <path id="Path_11" data-name="Path 11" d="M310.853,327.545c2.717,0,4.287,1.351,4.287,3.69,0,2.434-1.571,3.832-4.287,3.832h-2.874v3.47h-1.256V327.545Zm-2.874,6.313h2.827c1.979,0,3.126-.879,3.126-2.591,0-1.665-1.147-2.513-3.126-2.513h-2.827Z" transform="translate(-306.723 -327.498)"/>
      <path id="Path_12" data-name="Path 12" d="M331.664,337.345v1.193h-6.078V327.545h1.256v9.8Z" transform="translate(-315.08 -327.498)"/>
      <path id="Path_13" data-name="Path 13" d="M340.074,335.758l-1.225,2.78h-1.335l4.931-10.993h1.3l4.916,10.993H347.3l-1.225-2.78Zm2.984-6.785-2.45,5.576h4.931Z" transform="translate(-320.365 -327.498)"/>
      <path id="Path_14" data-name="Path 14" d="M368.488,338.538l-6.6-8.826v8.826h-1.256V327.545h1.3l6.6,8.841v-8.841h1.24v10.993Z" transform="translate(-330.61 -327.498)"/>
      <path id="Path_15" data-name="Path 15" d="M388.88,328.481l-.534,1.177a5.683,5.683,0,0,0-3.031-.926c-1.413,0-2.34.534-2.34,1.46,0,2.827,6.188,1.351,6.172,5.34,0,1.837-1.618,3.015-3.974,3.015a6.276,6.276,0,0,1-4.209-1.68l.566-1.131a5.465,5.465,0,0,0,3.659,1.555c1.587,0,2.576-.644,2.576-1.7.016-2.89-6.172-1.351-6.172-5.293,0-1.728,1.523-2.843,3.8-2.843A6.5,6.5,0,0,1,388.88,328.481Z" transform="translate(-339.616 -327.46)"/>
    </g>
  </g>
</svg>
